<svg id="Capa_1" enable-background="new 0 0 512 512" height="512" viewBox="0 0 512 512" width="512" xmlns="http://www.w3.org/2000/svg"><g><path d="m512 355.398c0-.013-.002-.026-.002-.039v-281.593c0-22.405-18.227-40.633-40.633-40.633h-25.632v-9.066c0-13.271-10.797-24.067-24.067-24.067h-50.198c-4.143 0-7.5 3.358-7.5 7.5s3.357 7.5 7.5 7.5h50.198c5 0 9.067 4.067 9.067 9.067v75.335l-349.466.082v-75.417c0-5 4.067-9.067 9.066-9.067h251.133c4.143 0 7.5-3.358 7.5-7.5s-3.357-7.5-7.5-7.5h-251.133c-13.27 0-24.066 10.796-24.066 24.067v9.066h-25.633c-22.405 0-40.633 18.228-40.633 40.633v281.613c0 .007-.001.013-.001.019 0 .007.001.013.001.019v16.551c0 22.405 18.228 40.632 40.633 40.632h33.133c4.142 0 7.5-3.358 7.5-7.5s-3.358-7.5-7.5-7.5h-33.133c-14.134 0-25.633-11.499-25.633-25.632v-9.07h481.997v9.07c0 14.134-11.499 25.632-25.633 25.632h-367.598c-4.142 0-7.5 3.358-7.5 7.5s3.358 7.5 7.5 7.5h86.75l.001 51.268h-42.484c-8.547 0-15.5 6.953-15.5 15.5v17.132c0 8.547 6.953 15.5 15.5 15.5h215.933c8.547 0 15.5-6.953 15.5-15.5v-17.132c0-8.547-6.953-15.5-15.5-15.5h-42.483v-51.268h149.882c22.405 0 40.633-18.228 40.633-40.632v-16.532c-.001-.012.001-.025.001-.038zm-147.533 123.97v17.132c0 .276-.225.5-.5.5h-215.933c-.276 0-.5-.224-.5-.5v-17.132c0-.276.224-.5.5-.5h215.933c.275 0 .5.224.5.5zm-99.4-15.5h-18.134v-17.355c0-.432.352-.783.783-.783h16.567c.432 0 .783.351.783.783v17.355zm41.416 0h-26.416v-17.355c0-8.703-7.08-15.783-15.783-15.783h-16.567c-8.703 0-15.783 7.08-15.783 15.783v17.355h-26.416l-.001-51.268h100.967v51.268zm157.384-115.97h-18.134v-266.63h9.067c4.999 0 9.066 4.067 9.066 9.066v257.564zm-33.134-233.496v233.496h-349.466v-233.414zm-364.466 233.496h-18.134v-257.564c0-4.999 4.067-9.066 9.066-9.066h9.068zm-51.266-274.132c0-14.134 11.499-25.633 25.633-25.633h25.633v18.135h-9.068c-13.27 0-24.066 10.796-24.066 24.066v257.564h-18.132zm463.866 274.132v-257.564c0-13.27-10.796-24.066-24.066-24.066h-9.067v-18.135h25.632c14.134 0 25.633 11.499 25.633 25.633v274.132z"/><path d="m99.4 57.2c0 13.271 10.796 24.066 24.066 24.066s24.067-10.796 24.067-24.066c0-13.271-10.796-24.067-24.067-24.067s-24.066 10.797-24.066 24.067zm33.134 0c0 4.999-4.067 9.066-9.067 9.066-4.999 0-9.066-4.067-9.066-9.066 0-5 4.067-9.067 9.066-9.067s9.067 4.068 9.067 9.067z"/><path d="m165.667 57.2c0 13.271 10.796 24.066 24.066 24.066s24.067-10.796 24.067-24.066c0-13.271-10.796-24.067-24.067-24.067-13.27 0-24.066 10.797-24.066 24.067zm33.133 0c0 4.999-4.067 9.066-9.067 9.066-4.999 0-9.066-4.067-9.066-9.066 0-5 4.067-9.067 9.066-9.067 5 0 9.067 4.068 9.067 9.067z"/><path d="m231.934 57.2c0 13.271 10.796 24.066 24.066 24.066s24.066-10.796 24.066-24.066c0-13.271-10.796-24.067-24.066-24.067-13.271 0-24.066 10.797-24.066 24.067zm33.132 0c0 4.999-4.067 9.066-9.066 9.066s-9.066-4.067-9.066-9.066c0-5 4.067-9.067 9.066-9.067s9.066 4.068 9.066 9.067z"/><path d="m231.824 303.682c2.468.822 5.029 1.239 7.612 1.239 10.373 0 19.547-6.615 22.829-16.461l33.134-99.399c2.033-6.099 1.569-12.624-1.306-18.373-2.875-5.75-7.817-10.036-13.915-12.069-6.099-2.033-12.622-1.569-18.373 1.306s-10.037 7.817-12.069 13.916l-33.133 99.399c-2.033 6.099-1.569 12.624 1.305 18.374 2.874 5.749 7.816 10.035 13.916 12.068zm-.992-25.699 33.133-99.4c.766-2.297 2.38-4.159 4.547-5.242 1.278-.639 2.657-.962 4.046-.962.965 0 1.934.156 2.875.47 2.298.766 4.159 2.38 5.242 4.546 1.084 2.166 1.258 4.624.492 6.922l-33.134 99.4c-1.237 3.71-4.692 6.204-8.598 6.204-.969 0-1.935-.158-2.87-.47-2.297-.766-4.159-2.38-5.242-4.546-1.082-2.166-1.257-4.624-.491-6.922z"/><path d="m106.449 248.168 49.701 49.7c4.546 4.545 10.589 7.048 17.017 7.048s12.471-2.503 17.017-7.049c4.546-4.545 7.049-10.589 7.049-17.018s-2.503-12.473-7.049-17.018l-32.128-32.128c-.306-.306-.306-.803-.001-1.108l32.128-32.128c4.63-4.63 7.197-11.04 7.042-17.587-.156-6.641-2.954-12.765-7.878-17.245-9.513-8.658-24.243-8.161-33.531 1.128l-49.369 49.368c-4.546 4.545-7.049 10.589-7.049 17.018.002 6.43 2.505 12.474 7.051 17.019zm10.607-23.429 49.369-49.368c1.899-1.899 4.427-2.866 6.906-2.866 2.161 0 4.285.735 5.923 2.226 1.861 1.693 2.919 4.003 2.978 6.504.059 2.503-.883 4.857-2.653 6.627l-32.129 32.129c-6.153 6.153-6.153 16.167 0 22.32l32.128 32.129c1.712 1.712 2.655 3.989 2.655 6.411s-.943 4.699-2.655 6.411c-1.713 1.712-3.99 2.656-6.411 2.656-2.422 0-4.699-.943-6.411-2.655l-49.7-49.7c-1.712-1.712-2.656-3.989-2.656-6.412s.943-4.7 2.656-6.412z"/><path d="m353.944 230.706c.152.152.229.338.229.553s-.077.401-.23.554l-32.128 32.129c-4.63 4.63-7.196 11.041-7.042 17.588.157 6.64 2.955 12.764 7.878 17.243 4.542 4.133 10.272 6.18 16.031 6.18 6.305 0 12.646-2.453 17.5-7.308l49.368-49.368c4.545-4.545 7.049-10.589 7.049-17.018 0-6.428-2.504-12.472-7.049-17.018l-49.7-49.7c-4.546-4.545-10.59-7.049-17.018-7.049-6.429 0-12.473 2.503-17.017 7.049-4.546 4.545-7.05 10.589-7.05 17.018 0 6.428 2.504 12.472 7.049 17.017zm-21.521-55.558c1.712-1.712 3.988-2.655 6.41-2.655s4.699.943 6.411 2.656l49.699 49.7c1.713 1.712 2.656 3.989 2.656 6.411s-.943 4.699-2.656 6.411l-49.368 49.368c-3.555 3.554-9.309 3.842-12.829.64-1.86-1.693-2.918-4.002-2.977-6.503-.06-2.504.883-4.857 2.653-6.627l32.127-32.128c2.982-2.981 4.624-6.945 4.624-11.161s-1.642-8.18-4.623-11.16l-32.129-32.129c-1.712-1.712-2.655-3.989-2.655-6.41.001-2.424.944-4.701 2.657-6.413z"/></g></svg>